<svg width="228" height="39" viewBox="0 0 228 39" fill="none" xmlns="http://www.w3.org/2000/svg">
<path d="M9.5833 9.57292C2.56192 16.6354 1.07664 18.2083 1.07664 18.5938C1.07664 18.6771 1.00388 18.8021 0.920813 18.875C0.837748 18.9479 0.764987 19.0833 0.764987 19.1771C0.764987 19.2708 0.692297 19.4375 0.609233 19.5417C0.526098 19.6562 0.453407 19.8438 0.453407 19.9687C0.453407 20.0937 0.401466 20.2396 0.33915 20.3021C-0.0970621 20.7396 -0.117881 24.9271 0.308027 25.6146C0.391091 25.7396 0.453407 25.9271 0.453407 26.0313C0.453407 26.1354 0.640355 26.5729 0.868871 27C1.09739 27.4271 1.3259 27.875 1.37784 27.9896C1.62711 28.5417 3.94331 30.75 4.27571 30.75C4.32766 30.75 4.43154 30.8229 4.50423 30.9062C4.57692 30.9896 4.71193 31.0625 4.81581 31.0625C4.91969 31.0625 5.0547 31.1354 5.12739 31.2187C5.20015 31.3021 5.3559 31.375 5.48054 31.375C5.59479 31.375 5.79219 31.4479 5.896 31.5312C6.01026 31.6146 6.20765 31.6875 6.33228 31.6875C6.45691 31.6875 6.727 31.7604 6.92432 31.8437C7.4021 32.0417 10.622 32.0729 10.9751 31.875C11.0998 31.8125 11.3698 31.7187 11.5672 31.6771C12.0761 31.5729 12.6889 31.3333 12.8343 31.1875C12.907 31.1146 13.0421 31.0625 13.1355 31.0625C13.229 31.0625 13.364 30.9896 13.4367 30.9062C13.5095 30.8229 13.6133 30.75 13.6652 30.75C13.9457 30.75 15.3687 29.3854 22.172 22.5729C30.2424 14.4896 29.8477 14.8333 30.4709 15.3437C30.6786 15.5208 30.7306 15.6562 30.7202 16.0104L30.7098 16.4687L20.5309 26.6771C14.9325 32.2917 10.3727 36.9167 10.4039 36.9479C10.435 36.9792 13.0109 37 16.1269 37H21.8085L29.2972 29.4687C36.2044 22.5417 37.8455 20.8021 37.8455 20.4062C37.8455 20.3229 37.9182 20.1979 38.0012 20.125C38.0844 20.0521 38.1571 19.9375 38.1571 19.8646C38.1571 19.7812 38.2194 19.5937 38.3025 19.4271C38.5309 18.9583 38.6971 18.4375 38.7803 17.8854C38.8322 17.5937 38.9049 17.1771 38.9569 16.9479C39.1022 16.3125 38.853 13.7604 38.6141 13.4062C38.5309 13.2917 38.4686 13.0833 38.4686 12.9271C38.4686 12.7708 38.3959 12.5938 38.3129 12.5208C38.2297 12.4479 38.1571 12.3125 38.1571 12.2187C38.1467 12.125 38.0324 11.8646 37.8974 11.6354C37.752 11.4062 37.5962 11.125 37.5443 11.0104C37.2949 10.4583 34.9787 8.25 34.6463 8.25C34.5945 8.25 34.4906 8.17708 34.4179 8.09375C34.3451 8.01042 34.2101 7.9375 34.1062 7.9375C34.0024 7.9375 33.8673 7.86458 33.7947 7.78125C33.722 7.69792 33.5661 7.625 33.4415 7.625C33.3169 7.625 33.1195 7.55208 33.0053 7.46875C32.9014 7.38542 32.6833 7.3125 32.5379 7.3125C32.3821 7.3125 32.0601 7.23958 31.8212 7.15625C31.5199 7.05208 30.9695 7 30.0555 7C29.1414 7 28.5909 7.05208 28.2897 7.15625C28.0509 7.23958 27.6977 7.3125 27.5107 7.3125C27.3237 7.3125 27.116 7.38542 27.0433 7.46875C26.9706 7.55208 26.8252 7.625 26.711 7.625C26.5967 7.625 26.3786 7.6875 26.2332 7.77083C26.0773 7.85417 25.88 7.94792 25.7969 7.98958C25.7138 8.02083 25.5476 8.10417 25.4334 8.17708C24.7063 8.625 24.27 8.92708 24.1143 9.07292C24.0208 9.16667 20.6555 12.5312 16.6255 16.5521C8.69006 24.4896 9.07433 24.1667 8.45117 23.6562C8.2434 23.4792 8.19146 23.3437 8.2019 22.9896L8.21228 22.5313L18.3912 12.3229C23.9897 6.70833 28.5494 2.08333 28.5182 2.05208C28.4871 2.02083 25.9111 2 22.7951 2H17.124L9.5833 9.57292Z" fill="white"/>
<path d="M60.3086 24.8608C60.3086 24.4419 60.2441 24.0659 60.1152 23.7329C59.9971 23.3892 59.7715 23.0776 59.4385 22.7983C59.1055 22.5083 58.6382 22.2236 58.0366 21.9443C57.4351 21.665 56.6562 21.375 55.7002 21.0742C54.6367 20.7305 53.627 20.3438 52.6709 19.9141C51.7256 19.4844 50.8877 18.9849 50.1572 18.4155C49.4375 17.8354 48.8682 17.1641 48.4492 16.4014C48.041 15.6387 47.8369 14.7524 47.8369 13.7427C47.8369 12.7651 48.0518 11.8789 48.4814 11.084C48.9111 10.2783 49.5127 9.59082 50.2861 9.02148C51.0596 8.44141 51.9727 7.99561 53.0254 7.68408C54.0889 7.37256 55.2544 7.2168 56.522 7.2168C58.2515 7.2168 59.7607 7.52832 61.0498 8.15137C62.3389 8.77441 63.3379 9.62842 64.0469 10.7134C64.7666 11.7983 65.1265 13.0391 65.1265 14.4355H60.3247C60.3247 13.748 60.1797 13.1465 59.8896 12.6309C59.6104 12.1045 59.1807 11.6909 58.6006 11.3901C58.0312 11.0894 57.3115 10.939 56.4414 10.939C55.6035 10.939 54.9053 11.0679 54.3467 11.3257C53.7881 11.5728 53.3691 11.9111 53.0898 12.3408C52.8105 12.7598 52.6709 13.2324 52.6709 13.7588C52.6709 14.1563 52.7676 14.5161 52.9609 14.8384C53.165 15.1606 53.4658 15.4614 53.8633 15.7407C54.2607 16.02 54.7495 16.2832 55.3296 16.5303C55.9097 16.7773 56.5811 17.019 57.3438 17.2554C58.6221 17.6421 59.7446 18.0771 60.7114 18.5605C61.689 19.0439 62.5054 19.5864 63.1606 20.188C63.8159 20.7896 64.3101 21.4717 64.6431 22.2344C64.9761 22.9971 65.1426 23.8618 65.1426 24.8286C65.1426 25.8491 64.9438 26.7622 64.5464 27.5679C64.1489 28.3735 63.5742 29.0557 62.8223 29.6143C62.0703 30.1729 61.1733 30.5972 60.1313 30.8872C59.0894 31.1772 57.9238 31.3223 56.6348 31.3223C55.4746 31.3223 54.3306 31.1719 53.2026 30.8711C52.0747 30.5596 51.0488 30.0923 50.125 29.4692C49.2119 28.8462 48.4814 28.0513 47.9336 27.0845C47.3857 26.1177 47.1118 24.9736 47.1118 23.6523H51.9619C51.9619 24.3828 52.0747 25.0005 52.3003 25.5054C52.5259 26.0103 52.8428 26.4185 53.251 26.73C53.6699 27.0415 54.1641 27.2671 54.7334 27.4067C55.3135 27.5464 55.9473 27.6162 56.6348 27.6162C57.4727 27.6162 58.1602 27.498 58.6973 27.2617C59.2451 27.0254 59.6479 26.6978 59.9058 26.2788C60.1743 25.8599 60.3086 25.3872 60.3086 24.8608ZM77.5498 27.0684V19.3018C77.5498 18.7432 77.4585 18.2651 77.2759 17.8677C77.0933 17.4595 76.8086 17.1426 76.4219 16.917C76.0459 16.6914 75.5571 16.5786 74.9556 16.5786C74.4399 16.5786 73.9941 16.6699 73.6182 16.8525C73.2422 17.0244 72.9521 17.2769 72.748 17.6099C72.5439 17.9321 72.4419 18.3135 72.4419 18.7539H67.8013C67.8013 18.0127 67.9731 17.3091 68.3169 16.6431C68.6606 15.9771 69.1602 15.3916 69.8154 14.8867C70.4707 14.3711 71.2495 13.9683 72.1519 13.6782C73.0649 13.3882 74.0854 13.2432 75.2134 13.2432C76.5669 13.2432 77.77 13.4688 78.8228 13.9199C79.8755 14.3711 80.7026 15.0479 81.3042 15.9502C81.9165 16.8525 82.2227 17.9805 82.2227 19.334V26.7944C82.2227 27.7505 82.2817 28.5347 82.3999 29.147C82.5181 29.7485 82.6899 30.2749 82.9155 30.7261V31H78.2266C78.001 30.5273 77.8291 29.9365 77.7109 29.2275C77.6035 28.5078 77.5498 27.7881 77.5498 27.0684ZM78.1621 20.3813L78.1943 23.0078H75.6001C74.9878 23.0078 74.4561 23.0776 74.0049 23.2173C73.5537 23.3569 73.1831 23.5557 72.8931 23.8135C72.603 24.0605 72.3882 24.3506 72.2485 24.6836C72.1196 25.0166 72.0552 25.3818 72.0552 25.7793C72.0552 26.1768 72.1465 26.5366 72.3291 26.8589C72.5117 27.1704 72.7749 27.4175 73.1187 27.6001C73.4624 27.772 73.8652 27.8579 74.3271 27.8579C75.0254 27.8579 75.6323 27.7183 76.1479 27.439C76.6636 27.1597 77.061 26.8159 77.3403 26.4077C77.6304 25.9995 77.7808 25.6128 77.7915 25.2476L79.0161 27.2134C78.8442 27.6538 78.6079 28.1104 78.3071 28.583C78.0171 29.0557 77.6465 29.5015 77.1953 29.9204C76.7441 30.3286 76.2017 30.667 75.5679 30.9355C74.9341 31.1934 74.1821 31.3223 73.312 31.3223C72.2056 31.3223 71.2012 31.1021 70.2988 30.6616C69.4072 30.2104 68.6982 29.5928 68.1719 28.8086C67.6562 28.0137 67.3984 27.1113 67.3984 26.1016C67.3984 25.1885 67.5703 24.3774 67.9141 23.6685C68.2578 22.9595 68.7627 22.3633 69.4287 21.8799C70.1055 21.3857 70.9487 21.0151 71.9585 20.7681C72.9683 20.5103 74.1392 20.3813 75.4712 20.3813H78.1621ZM90.6982 6.25V31H86.0415V6.25H90.6982ZM103.943 27.0684V19.3018C103.943 18.7432 103.852 18.2651 103.669 17.8677C103.487 17.4595 103.202 17.1426 102.815 16.917C102.439 16.6914 101.951 16.5786 101.349 16.5786C100.833 16.5786 100.388 16.6699 100.012 16.8525C99.6357 17.0244 99.3457 17.2769 99.1416 17.6099C98.9375 17.9321 98.8354 18.3135 98.8354 18.7539H94.1948C94.1948 18.0127 94.3667 17.3091 94.7104 16.6431C95.0542 15.9771 95.5537 15.3916 96.209 14.8867C96.8643 14.3711 97.6431 13.9683 98.5454 13.6782C99.4585 13.3882 100.479 13.2432 101.607 13.2432C102.96 13.2432 104.164 13.4688 105.216 13.9199C106.269 14.3711 107.096 15.0479 107.698 15.9502C108.31 16.8525 108.616 17.9805 108.616 19.334V26.7944C108.616 27.7505 108.675 28.5347 108.793 29.147C108.912 29.7485 109.083 30.2749 109.309 30.7261V31H104.62C104.395 30.5273 104.223 29.9365 104.104 29.2275C103.997 28.5078 103.943 27.7881 103.943 27.0684ZM104.556 20.3813L104.588 23.0078H101.994C101.381 23.0078 100.85 23.0776 100.398 23.2173C99.9473 23.3569 99.5767 23.5557 99.2866 23.8135C98.9966 24.0605 98.7817 24.3506 98.6421 24.6836C98.5132 25.0166 98.4487 25.3818 98.4487 25.7793C98.4487 26.1768 98.54 26.5366 98.7227 26.8589C98.9053 27.1704 99.1685 27.4175 99.5122 27.6001C99.856 27.772 100.259 27.8579 100.721 27.8579C101.419 27.8579 102.026 27.7183 102.542 27.439C103.057 27.1597 103.455 26.8159 103.734 26.4077C104.024 25.9995 104.174 25.6128 104.185 25.2476L105.41 27.2134C105.238 27.6538 105.001 28.1104 104.701 28.583C104.411 29.0557 104.04 29.5015 103.589 29.9204C103.138 30.3286 102.595 30.667 101.961 30.9355C101.328 31.1934 100.576 31.3223 99.7056 31.3223C98.5991 31.3223 97.5947 31.1021 96.6924 30.6616C95.8008 30.2104 95.0918 29.5928 94.5654 28.8086C94.0498 28.0137 93.792 27.1113 93.792 26.1016C93.792 25.1885 93.9639 24.3774 94.3076 23.6685C94.6514 22.9595 95.1562 22.3633 95.8223 21.8799C96.499 21.3857 97.3423 21.0151 98.3521 20.7681C99.3618 20.5103 100.533 20.3813 101.865 20.3813H104.556ZM126.067 27.3745V31H112.822V27.3745H126.067ZM125.809 16.2402L114.691 31H111.581V28.2446L122.651 13.5654H125.809V16.2402ZM124.166 13.5654V17.207H111.839V13.5654H124.166ZM138.394 27.0684V19.3018C138.394 18.7432 138.302 18.2651 138.12 17.8677C137.937 17.4595 137.652 17.1426 137.266 16.917C136.89 16.6914 136.401 16.5786 135.799 16.5786C135.284 16.5786 134.838 16.6699 134.462 16.8525C134.086 17.0244 133.796 17.2769 133.592 17.6099C133.388 17.9321 133.286 18.3135 133.286 18.7539H128.645C128.645 18.0127 128.817 17.3091 129.161 16.6431C129.504 15.9771 130.004 15.3916 130.659 14.8867C131.314 14.3711 132.093 13.9683 132.996 13.6782C133.909 13.3882 134.929 13.2432 136.057 13.2432C137.411 13.2432 138.614 13.4688 139.667 13.9199C140.719 14.3711 141.546 15.0479 142.148 15.9502C142.76 16.8525 143.066 17.9805 143.066 19.334V26.7944C143.066 27.7505 143.125 28.5347 143.244 29.147C143.362 29.7485 143.534 30.2749 143.759 30.7261V31H139.07C138.845 30.5273 138.673 29.9365 138.555 29.2275C138.447 28.5078 138.394 27.7881 138.394 27.0684ZM139.006 20.3813L139.038 23.0078H136.444C135.832 23.0078 135.3 23.0776 134.849 23.2173C134.397 23.3569 134.027 23.5557 133.737 23.8135C133.447 24.0605 133.232 24.3506 133.092 24.6836C132.963 25.0166 132.899 25.3818 132.899 25.7793C132.899 26.1768 132.99 26.5366 133.173 26.8589C133.355 27.1704 133.619 27.4175 133.962 27.6001C134.306 27.772 134.709 27.8579 135.171 27.8579C135.869 27.8579 136.476 27.7183 136.992 27.439C137.507 27.1597 137.905 26.8159 138.184 26.4077C138.474 25.9995 138.625 25.6128 138.635 25.2476L139.86 27.2134C139.688 27.6538 139.452 28.1104 139.151 28.583C138.861 29.0557 138.49 29.5015 138.039 29.9204C137.588 30.3286 137.045 30.667 136.412 30.9355C135.778 31.1934 135.026 31.3223 134.156 31.3223C133.049 31.3223 132.045 31.1021 131.143 30.6616C130.251 30.2104 129.542 29.5928 129.016 28.8086C128.5 28.0137 128.242 27.1113 128.242 26.1016C128.242 25.1885 128.414 24.3774 128.758 23.6685C129.102 22.9595 129.606 22.3633 130.272 21.8799C130.949 21.3857 131.792 21.0151 132.802 20.7681C133.812 20.5103 134.983 20.3813 136.315 20.3813H139.006ZM151.284 17.3682V31H146.644V13.5654H151.01L151.284 17.3682ZM156.537 13.4526L156.457 17.7549C156.231 17.7227 155.957 17.6958 155.635 17.6743C155.323 17.6421 155.039 17.626 154.781 17.626C154.125 17.626 153.556 17.7119 153.073 17.8838C152.6 18.0449 152.203 18.2866 151.88 18.6089C151.569 18.9312 151.333 19.3232 151.171 19.7852C151.021 20.2471 150.935 20.7734 150.914 21.3643L149.979 21.0742C149.979 19.9463 150.092 18.9097 150.317 17.9644C150.543 17.0083 150.871 16.1758 151.3 15.4668C151.741 14.7578 152.278 14.21 152.912 13.8232C153.545 13.4365 154.271 13.2432 155.087 13.2432C155.345 13.2432 155.608 13.2646 155.876 13.3076C156.145 13.3398 156.365 13.3882 156.537 13.4526Z" fill="white"/>
<path d="M167.844 7.53906V31H165.878V7.53906H167.844ZM175.885 7.53906V9.24707H157.854V7.53906H175.885ZM184.376 31.3223C183.238 31.3223 182.19 31.1128 181.234 30.6938C180.289 30.2749 179.462 29.6841 178.753 28.9214C178.055 28.1587 177.512 27.2563 177.125 26.2144C176.75 25.1616 176.562 24.0122 176.562 22.7661V22.0732C176.562 20.7305 176.76 19.5166 177.158 18.4316C177.555 17.3467 178.103 16.4175 178.801 15.644C179.5 14.8706 180.294 14.2798 181.186 13.8716C182.088 13.4526 183.034 13.2432 184.022 13.2432C185.128 13.2432 186.111 13.4419 186.971 13.8394C187.83 14.2261 188.55 14.7793 189.13 15.499C189.721 16.208 190.167 17.0513 190.467 18.0288C190.768 18.9956 190.918 20.0645 190.918 21.2354V22.4116H177.722V20.7681H189.001V20.5425C188.979 19.5649 188.781 18.6519 188.405 17.8032C188.04 16.9438 187.492 16.2456 186.761 15.7085C186.031 15.1714 185.118 14.9028 184.022 14.9028C183.206 14.9028 182.454 15.0747 181.766 15.4185C181.089 15.7622 180.504 16.2563 180.01 16.9009C179.526 17.5347 179.15 18.292 178.882 19.1729C178.624 20.043 178.495 21.0098 178.495 22.0732V22.7661C178.495 23.7329 178.635 24.6353 178.914 25.4731C179.204 26.3003 179.612 27.0308 180.139 27.6646C180.676 28.2983 181.31 28.7925 182.04 29.147C182.771 29.5015 183.576 29.6787 184.457 29.6787C185.488 29.6787 186.401 29.4907 187.196 29.1147C187.991 28.728 188.706 28.1211 189.339 27.2939L190.548 28.2285C190.172 28.7871 189.699 29.3027 189.13 29.7754C188.571 30.248 187.9 30.624 187.116 30.9033C186.332 31.1826 185.418 31.3223 184.376 31.3223ZM201.15 29.6626C201.967 29.6626 202.729 29.5122 203.438 29.2114C204.158 28.8999 204.749 28.4434 205.211 27.8418C205.684 27.2295 205.952 26.4829 206.017 25.6021H207.854C207.8 26.7085 207.461 27.6968 206.838 28.5669C206.226 29.4263 205.42 30.103 204.421 30.5972C203.433 31.0806 202.343 31.3223 201.15 31.3223C199.937 31.3223 198.862 31.1021 197.928 30.6616C197.004 30.2212 196.23 29.6089 195.607 28.8247C194.984 28.0298 194.512 27.106 194.189 26.0532C193.878 24.9897 193.722 23.8457 193.722 22.6211V21.9443C193.722 20.7197 193.878 19.5811 194.189 18.5283C194.512 17.4648 194.984 16.541 195.607 15.7568C196.23 14.9619 197.004 14.3442 197.928 13.9038C198.852 13.4634 199.92 13.2432 201.134 13.2432C202.38 13.2432 203.498 13.4956 204.486 14.0005C205.485 14.5054 206.28 15.2197 206.871 16.1436C207.472 17.0674 207.8 18.1631 207.854 19.4307H206.017C205.963 18.4961 205.716 17.6904 205.275 17.0137C204.835 16.3369 204.255 15.8159 203.535 15.4507C202.815 15.0854 202.015 14.9028 201.134 14.9028C200.146 14.9028 199.303 15.0962 198.604 15.4829C197.906 15.8589 197.337 16.3799 196.896 17.0459C196.467 17.7012 196.15 18.4531 195.946 19.3018C195.742 20.1396 195.64 21.0205 195.64 21.9443V22.6211C195.64 23.5557 195.736 24.4473 195.93 25.2959C196.134 26.1338 196.451 26.8804 196.88 27.5356C197.321 28.1909 197.89 28.7119 198.588 29.0986C199.297 29.4746 200.151 29.6626 201.15 29.6626ZM213.654 6.25V31H211.737V6.25H213.654ZM213.219 21.2031L212.365 20.7197C212.43 19.6885 212.639 18.7217 212.994 17.8193C213.348 16.917 213.826 16.1221 214.428 15.4346C215.04 14.7471 215.754 14.21 216.571 13.8232C217.398 13.4365 218.311 13.2432 219.31 13.2432C220.18 13.2432 220.959 13.3613 221.646 13.5977C222.334 13.834 222.919 14.21 223.403 14.7256C223.886 15.2412 224.251 15.9019 224.499 16.7075C224.756 17.5132 224.885 18.4961 224.885 19.6562V31H222.952V19.6401C222.952 18.437 222.785 17.4971 222.452 16.8203C222.119 16.1328 221.646 15.644 221.034 15.354C220.422 15.064 219.697 14.9189 218.859 14.9189C217.935 14.9189 217.124 15.123 216.426 15.5312C215.738 15.9287 215.158 16.4497 214.686 17.0942C214.224 17.728 213.869 18.4102 213.622 19.1406C213.375 19.8604 213.241 20.5479 213.219 21.2031Z" fill="white"/>
</svg>
